<svg width="1307" height="585" viewBox="0 0 1307 585" fill="none" xmlns="http://www.w3.org/2000/svg">
<rect x="948" y="346" width="146" height="90" fill="#E43583"/>
<rect x="944" y="145" width="54" height="195" fill="#0099CD"/>
<rect x="837" y="294" width="99" height="121" fill="#E43583"/>
<rect x="1017" y="446" width="99" height="112" fill="#0099CD"/>
<rect x="1101" y="102" width="29" height="28" fill="#0099CD"/>
<rect x="813" y="156" width="26" height="26" fill="#0099CD"/>
<rect x="890" y="482" width="13" height="13" fill="#0099CD"/>
<rect x="882" y="201" width="37" height="37" fill="#E43583"/>
<rect x="1130" y="268" width="21" height="21" fill="#E43583"/>
<rect x="1160" y="482" width="9" height="8" fill="#0099CD"/>
<rect x="1280" y="273" width="27" height="27" fill="#E43583"/>
<path d="M1067 192H1081V249H1067V192Z" fill="#0099CD"/>
<rect y="529" width="11" height="11" fill="#E43583"/>
<rect x="1005" y="268" width="107" height="57" fill="#E43583"/>
<rect x="755" y="446" width="253" height="21" fill="#0099CD"/>
<rect x="784" y="250" width="29" height="14" fill="#E43583"/>
<rect x="440" y="147" width="5" height="5" fill="#0099CD"/>
<rect x="367" y="577" width="8" height="8" fill="#0099CD"/>
<rect x="40" y="376" width="6" height="6" fill="#0099CD"/>
<rect x="354" width="13" height="13" fill="#0099CD"/>
<line x1="1001.5" y1="124" x2="1001.5" y2="250" stroke="#0099CD"/>
<line x1="731" y1="472.5" x2="955" y2="472.5" stroke="#0099CD"/>
<path d="M1099 338L1099 436" stroke="#E43583"/>
<path d="M936 288L784 288" stroke="#E43583"/>
<line x1="1019" y1="562.5" x2="1204" y2="562.5" stroke="#0099CD"/>
<line x1="1069" y1="262.5" x2="1125" y2="262.5" stroke="#E43583"/>
</svg>
