<svg width="166" height="67" viewBox="0 0 166 67" fill="none" xmlns="http://www.w3.org/2000/svg">
<path d="M58.3594 0H0V14.3H58.3594V0Z" fill="#0099CD"/>
<path d="M58.3594 48.1H0V62.4H58.3594V48.1Z" fill="#0099CD"/>
<path d="M14.2656 0H0V62.4H14.2656V0Z" fill="#0099CD"/>
<path d="M58.3594 19.5H20.75V42.9H58.3594V19.5Z" fill="#E43583"/>
<path d="M78.4043 36.3691C78.2493 38.5111 77.4564 40.1973 76.0254 41.4277C74.6035 42.6582 72.7259 43.2734 70.3926 43.2734C67.8405 43.2734 65.8307 42.4167 64.3633 40.7031C62.9049 38.9805 62.1758 36.6198 62.1758 33.6211V32.4043C62.1758 30.4902 62.513 28.804 63.1875 27.3457C63.862 25.8874 64.8236 24.7708 66.0723 23.9961C67.3301 23.2122 68.7884 22.8203 70.4473 22.8203C72.7441 22.8203 74.5944 23.4355 75.998 24.666C77.4017 25.8965 78.2129 27.6237 78.4316 29.8477H74.3301C74.2298 28.5625 73.8698 27.6328 73.25 27.0586C72.6393 26.4753 71.7051 26.1836 70.4473 26.1836C69.0801 26.1836 68.0547 26.6758 67.3711 27.6602C66.6966 28.6354 66.3503 30.153 66.332 32.2129V33.7168C66.332 35.8678 66.6556 37.4401 67.3027 38.4336C67.959 39.4271 68.9889 39.9238 70.3926 39.9238C71.6595 39.9238 72.6029 39.6367 73.2227 39.0625C73.8516 38.4792 74.2116 37.5814 74.3027 36.3691H78.4043ZM97.2988 43H93.1973V34.4688H85.1992V43H81.0977V23.0938H85.1992V31.1602H93.1973V23.0938H97.2988V43ZM108.264 35.7129H104.996V43H100.895V23.0938H108.291C110.643 23.0938 112.456 23.6178 113.732 24.666C115.008 25.7142 115.646 27.1953 115.646 29.1094C115.646 30.4674 115.35 31.6022 114.758 32.5137C114.174 33.416 113.286 34.1361 112.092 34.6738L116.398 42.8086V43H111.996L108.264 35.7129ZM104.996 32.3906H108.305C109.335 32.3906 110.132 32.1309 110.697 31.6113C111.262 31.0827 111.545 30.3581 111.545 29.4375C111.545 28.4987 111.276 27.7604 110.738 27.2227C110.21 26.6849 109.394 26.416 108.291 26.416H104.996V32.3906ZM123.139 43H119.037V23.0938H123.139V43ZM137.275 37.7773C137.275 37.0026 137.002 36.4102 136.455 36C135.908 35.5807 134.924 35.1432 133.502 34.6875C132.08 34.2227 130.954 33.7669 130.125 33.3203C127.865 32.099 126.734 30.4538 126.734 28.3848C126.734 27.3092 127.035 26.3522 127.637 25.5137C128.247 24.666 129.118 24.0052 130.248 23.5312C131.387 23.0573 132.663 22.8203 134.076 22.8203C135.498 22.8203 136.765 23.0801 137.877 23.5996C138.989 24.11 139.85 24.8346 140.461 25.7734C141.081 26.7122 141.391 27.7786 141.391 28.9727H137.289C137.289 28.0612 137.002 27.3548 136.428 26.8535C135.854 26.3431 135.047 26.0879 134.008 26.0879C133.005 26.0879 132.226 26.3021 131.67 26.7305C131.114 27.1497 130.836 27.7057 130.836 28.3984C130.836 29.0456 131.16 29.5879 131.807 30.0254C132.463 30.4629 133.424 30.873 134.691 31.2559C137.025 31.9577 138.725 32.8281 139.791 33.8672C140.857 34.9062 141.391 36.2005 141.391 37.75C141.391 39.4727 140.739 40.8262 139.436 41.8105C138.132 42.7858 136.378 43.2734 134.172 43.2734C132.641 43.2734 131.246 42.9954 129.988 42.4395C128.73 41.8743 127.769 41.1042 127.104 40.1289C126.447 39.1536 126.119 38.0234 126.119 36.7383H130.234C130.234 38.9349 131.547 40.0332 134.172 40.0332C135.147 40.0332 135.908 39.8372 136.455 39.4453C137.002 39.0443 137.275 38.4883 137.275 37.7773Z" fill="#E43583"/>
<path d="M64.5352 60.4668H71.2734V62H62.6504V47.7812H64.5352V60.4668ZM77.5137 62.1953C76.0814 62.1953 74.916 61.7266 74.0176 60.7891C73.1191 59.8451 72.6699 58.5853 72.6699 57.0098V56.6777C72.6699 55.6296 72.8685 54.6953 73.2656 53.875C73.6693 53.0482 74.2292 52.4036 74.9453 51.9414C75.668 51.4727 76.4492 51.2383 77.2891 51.2383C78.6628 51.2383 79.7305 51.6908 80.4922 52.5957C81.2539 53.5007 81.6348 54.7962 81.6348 56.4824V57.2344H74.4766C74.5026 58.276 74.8053 59.1191 75.3848 59.7637C75.9707 60.4017 76.7129 60.7207 77.6113 60.7207C78.2493 60.7207 78.7897 60.5905 79.2324 60.3301C79.6751 60.0697 80.0625 59.7246 80.3945 59.2949L81.498 60.1543C80.6126 61.515 79.2845 62.1953 77.5137 62.1953ZM77.2891 52.7227C76.5599 52.7227 75.9479 52.9896 75.4531 53.5234C74.9583 54.0508 74.6523 54.793 74.5352 55.75H79.8281V55.6133C79.776 54.6953 79.5286 53.9857 79.0859 53.4844C78.6432 52.9766 78.0443 52.7227 77.2891 52.7227ZM88.9785 62V47.7812H92.9922C94.2292 47.7812 95.3229 48.0547 96.2734 48.6016C97.224 49.1484 97.9564 49.9264 98.4707 50.9355C98.9915 51.9447 99.2552 53.1035 99.2617 54.4121V55.3203C99.2617 56.6615 99.0013 57.8366 98.4805 58.8457C97.9661 59.8548 97.2272 60.6296 96.2637 61.1699C95.3066 61.7103 94.1901 61.987 92.9141 62H88.9785ZM90.8535 49.3242V60.4668H92.8262C94.2715 60.4668 95.3945 60.0176 96.1953 59.1191C97.0026 58.2207 97.4062 56.9414 97.4062 55.2812V54.4512C97.4062 52.8366 97.0254 51.5833 96.2637 50.6914C95.5085 49.793 94.4342 49.3372 93.041 49.3242H90.8535ZM106.205 62.1953C104.773 62.1953 103.607 61.7266 102.709 60.7891C101.811 59.8451 101.361 58.5853 101.361 57.0098V56.6777C101.361 55.6296 101.56 54.6953 101.957 53.875C102.361 53.0482 102.921 52.4036 103.637 51.9414C104.359 51.4727 105.141 51.2383 105.98 51.2383C107.354 51.2383 108.422 51.6908 109.184 52.5957C109.945 53.5007 110.326 54.7962 110.326 56.4824V57.2344H103.168C103.194 58.276 103.497 59.1191 104.076 59.7637C104.662 60.4017 105.404 60.7207 106.303 60.7207C106.941 60.7207 107.481 60.5905 107.924 60.3301C108.367 60.0697 108.754 59.7246 109.086 59.2949L110.189 60.1543C109.304 61.515 107.976 62.1953 106.205 62.1953ZM105.98 52.7227C105.251 52.7227 104.639 52.9896 104.145 53.5234C103.65 54.0508 103.344 54.793 103.227 55.75H108.52V55.6133C108.467 54.6953 108.22 53.9857 107.777 53.4844C107.335 52.9766 106.736 52.7227 105.98 52.7227ZM118.578 59.1973C118.578 58.709 118.393 58.3314 118.021 58.0645C117.657 57.791 117.016 57.5566 116.098 57.3613C115.186 57.166 114.46 56.9316 113.92 56.6582C113.386 56.3848 112.989 56.0592 112.729 55.6816C112.475 55.304 112.348 54.8548 112.348 54.334C112.348 53.4681 112.712 52.7357 113.441 52.1367C114.177 51.5378 115.115 51.2383 116.254 51.2383C117.452 51.2383 118.422 51.5475 119.164 52.166C119.913 52.7845 120.287 53.5755 120.287 54.5391H118.471C118.471 54.0443 118.259 53.6178 117.836 53.2598C117.419 52.9017 116.892 52.7227 116.254 52.7227C115.596 52.7227 115.082 52.8659 114.711 53.1523C114.34 53.4388 114.154 53.8132 114.154 54.2754C114.154 54.7116 114.327 55.0404 114.672 55.2617C115.017 55.4831 115.639 55.6947 116.537 55.8965C117.442 56.0983 118.174 56.3392 118.734 56.6191C119.294 56.8991 119.708 57.2376 119.975 57.6348C120.248 58.0254 120.385 58.5039 120.385 59.0703C120.385 60.0143 120.007 60.7728 119.252 61.3457C118.497 61.9121 117.517 62.1953 116.312 62.1953C115.466 62.1953 114.717 62.0456 114.066 61.7461C113.415 61.4466 112.904 61.0299 112.533 60.4961C112.169 59.9557 111.986 59.373 111.986 58.748H113.793C113.826 59.3535 114.066 59.8353 114.516 60.1934C114.971 60.5449 115.57 60.7207 116.312 60.7207C116.996 60.7207 117.543 60.584 117.953 60.3105C118.37 60.0306 118.578 59.6595 118.578 59.1973ZM124.701 62H122.895V51.4336H124.701V62ZM122.748 48.6309C122.748 48.3379 122.836 48.0905 123.012 47.8887C123.194 47.6868 123.461 47.5859 123.812 47.5859C124.164 47.5859 124.431 47.6868 124.613 47.8887C124.796 48.0905 124.887 48.3379 124.887 48.6309C124.887 48.9238 124.796 49.168 124.613 49.3633C124.431 49.5586 124.164 49.6562 123.812 49.6562C123.461 49.6562 123.194 49.5586 123.012 49.3633C122.836 49.168 122.748 48.9238 122.748 48.6309ZM127.172 56.6289C127.172 54.9818 127.553 53.6732 128.314 52.7031C129.076 51.7266 130.085 51.2383 131.342 51.2383C132.631 51.2383 133.637 51.694 134.359 52.6055L134.447 51.4336H136.098V61.7461C136.098 63.1133 135.691 64.1908 134.877 64.9785C134.07 65.7663 132.982 66.1602 131.615 66.1602C130.854 66.1602 130.108 65.9974 129.379 65.6719C128.65 65.3464 128.093 64.9004 127.709 64.334L128.646 63.25C129.421 64.207 130.368 64.6855 131.488 64.6855C132.367 64.6855 133.051 64.4382 133.539 63.9434C134.034 63.4486 134.281 62.752 134.281 61.8535V60.9453C133.559 61.7786 132.572 62.1953 131.322 62.1953C130.085 62.1953 129.083 61.6973 128.314 60.7012C127.553 59.7051 127.172 58.3477 127.172 56.6289ZM128.988 56.834C128.988 58.0254 129.232 58.9629 129.721 59.6465C130.209 60.3236 130.893 60.6621 131.771 60.6621C132.911 60.6621 133.747 60.1445 134.281 59.1094V54.2852C133.728 53.276 132.898 52.7715 131.791 52.7715C130.912 52.7715 130.225 53.1133 129.73 53.7969C129.236 54.4805 128.988 55.4928 128.988 56.834ZM140.541 51.4336L140.6 52.7617C141.407 51.7461 142.462 51.2383 143.764 51.2383C145.997 51.2383 147.123 52.498 147.143 55.0176V62H145.336V55.0078C145.329 54.2461 145.154 53.6829 144.809 53.3184C144.47 52.9538 143.939 52.7715 143.217 52.7715C142.631 52.7715 142.117 52.9277 141.674 53.2402C141.231 53.5527 140.886 53.9629 140.639 54.4707V62H138.832V51.4336H140.541ZM154.252 62.1953C152.82 62.1953 151.654 61.7266 150.756 60.7891C149.857 59.8451 149.408 58.5853 149.408 57.0098V56.6777C149.408 55.6296 149.607 54.6953 150.004 53.875C150.408 53.0482 150.967 52.4036 151.684 51.9414C152.406 51.4727 153.188 51.2383 154.027 51.2383C155.401 51.2383 156.469 51.6908 157.23 52.5957C157.992 53.5007 158.373 54.7962 158.373 56.4824V57.2344H151.215C151.241 58.276 151.544 59.1191 152.123 59.7637C152.709 60.4017 153.451 60.7207 154.35 60.7207C154.988 60.7207 155.528 60.5905 155.971 60.3301C156.413 60.0697 156.801 59.7246 157.133 59.2949L158.236 60.1543C157.351 61.515 156.023 62.1953 154.252 62.1953ZM154.027 52.7227C153.298 52.7227 152.686 52.9896 152.191 53.5234C151.697 54.0508 151.391 54.793 151.273 55.75H156.566V55.6133C156.514 54.6953 156.267 53.9857 155.824 53.4844C155.382 52.9766 154.783 52.7227 154.027 52.7227ZM165.58 53.0547C165.307 53.0091 165.01 52.9863 164.691 52.9863C163.507 52.9863 162.702 53.4909 162.279 54.5V62H160.473V51.4336H162.23L162.26 52.6543C162.852 51.7103 163.692 51.2383 164.779 51.2383C165.131 51.2383 165.398 51.2839 165.58 51.375V53.0547Z" fill="#3C3C3B"/>
</svg>
